<svg width="10" height="6" viewBox="0 0 10 6" fill="none" xmlns="http://www.w3.org/2000/svg">
<path d="M5.63739 5.59018L9.74504 1.48253C9.90557 1.322 10 1.10482 10 0.868744C10 0.632673 9.90557 0.415487 9.74504 0.254958C9.58451 0.0944291 9.36733 0 9.13126 0C8.89518 0 8.678 0.0944291 8.51747 0.254958L5.00472 3.76771L1.49197 0.254958C1.33144 0.0944291 1.11426 0 0.878187 0C0.642115 0 0.424929 0.0944286 0.264401 0.245514C0.0849861 0.415486 0 0.642116 0 0.868744C0 1.08593 0.0849857 1.30312 0.245514 1.48253C1.322 2.56846 4.11709 5.37299 4.30595 5.57129L4.32483 5.59018C4.66478 5.93012 5.29745 5.93012 5.63739 5.59018Z" fill="white"/>
</svg>
